<?xml version="1.0" encoding="UTF-8" standalone="no"?>
<svg
   version="1.1"
   width="500"
   height="500"
   id="svg20"
   sodipodi:docname="logo-incskape.svg"
   inkscape:version="1.4.3 (0d15f75, 2025-12-25)"
   inkscape:export-filename="SVGS Blue Gradient\flat_512x512.svg"
   inkscape:export-xdpi="96"
   inkscape:export-ydpi="96"
   xmlns:inkscape="http://www.inkscape.org/namespaces/inkscape"
   xmlns:sodipodi="http://sodipodi.sourceforge.net/DTD/sodipodi-0.dtd"
   xmlns:xlink="http://www.w3.org/1999/xlink"
   xmlns="http://www.w3.org/2000/svg"
   xmlns:svg="http://www.w3.org/2000/svg">
  <defs
     id="defs20">
    <linearGradient
       id="linearGradient57"
       inkscape:swatch="solid">
      <stop
         style="stop-color:#101010;stop-opacity:1;"
         offset="0"
         id="stop57" />
    </linearGradient>
    <linearGradient
       id="linearGradient33">
      <stop
         style="stop-color:#4a3aff;stop-opacity:1;"
         offset="0"
         id="stop32" />
      <stop
         style="stop-color:#2fc8b5;stop-opacity:1;"
         offset="1"
         id="stop33" />
    </linearGradient>
    <linearGradient
       id="swatch22"
       inkscape:swatch="solid">
      <stop
         style="stop-color:#fc4201;stop-opacity:1;"
         offset="0"
         id="stop22" />
    </linearGradient>
    <linearGradient
       id="linearGradient18"
       inkscape:swatch="solid">
      <stop
         style="stop-color:#ffffff;stop-opacity:1;"
         offset="0"
         id="stop17" />
    </linearGradient>
    <linearGradient
       id="swatch3"
       inkscape:swatch="solid">
      <stop
         style="stop-color:#000000;stop-opacity:1;"
         offset="0"
         id="stop2" />
    </linearGradient>
    <linearGradient
       id="swatch67"
       inkscape:swatch="solid">
      <stop
         style="stop-color:#fc4201;stop-opacity:1;"
         offset="0"
         id="stop67" />
    </linearGradient>
    <linearGradient
       id="swatch5"
       inkscape:swatch="solid">
      <stop
         style="stop-color:#fc4201;stop-opacity:1;"
         offset="0"
         id="stop5" />
    </linearGradient>
    <linearGradient
       id="swatch4"
       inkscape:swatch="solid">
      <stop
         style="stop-color:#ffffff;stop-opacity:1;"
         offset="0"
         id="stop4" />
    </linearGradient>
    <linearGradient
       inkscape:collect="always"
       xlink:href="#linearGradient33"
       id="linearGradient32"
       gradientUnits="userSpaceOnUse"
       gradientTransform="matrix(0.56579738,0,0,0.5772851,-266.40022,55.243034)"
       x1="492.64294"
       y1="396.40146"
       x2="1332.7469"
       y2="278.33252" />
  </defs>
  <sodipodi:namedview
     id="namedview20"
     pagecolor="#ffffff"
     bordercolor="#000000"
     borderopacity="0"
     inkscape:showpageshadow="2"
     inkscape:pageopacity="0.0"
     inkscape:pagecheckerboard="0"
     inkscape:deskcolor="#d1d1d1"
     inkscape:zoom="0.35355339"
     inkscape:cx="2876.5104"
     inkscape:cy="753.77583"
     inkscape:window-width="1920"
     inkscape:window-height="1009"
     inkscape:window-x="4472"
     inkscape:window-y="222"
     inkscape:window-maximized="1"
     inkscape:current-layer="svg20">
    <inkscape:page
       x="0"
       y="0"
       width="500"
       height="500"
       id="page9"
       margin="0"
       bleed="0"
       inkscape:label="Blue Page" />
  </sodipodi:namedview>
  <path
     id="rect43-4-8"
     style="fill:url(#linearGradient32);stroke-width:10.9806"
     d="M 120.63718,9.9999742 C 59.344581,9.9999742 10.000081,60.346304 10.000081,122.8834 v 254.23322 c 0,62.5371 49.3445,112.8834 110.637099,112.8834 h 258.7258 c 61.2927,0 110.6371,-50.3463 110.6371,-112.8834 V 122.8834 c 0,-62.537096 -49.3444,-112.8834258 -110.6371,-112.8834258 z m 129.1689,29.4606798 c 2.631,-0.0656 5.3502,0.46588 8.0197,1.65379 4.1031,2.45021 8.0917,6.46491 9.459,11.19522 0.6846,7.51269 -0.3547,12.70304 -4.9536,18.5604 -1.1217,1.22571 -2.1024,2.20491 -3.5225,3.05477 -1.1941,-0.0893 -1.1921,-0.0889 -2.4572,-0.5014 -4.3919,-1.19252 -8.4715,-1.3248 -12.6738,0.5014 -2.3606,0.0634 -3.5258,-0.93024 -5.1827,-2.50913 -2.0698,-2.24033 -3.3617,-4.53798 -4.5013,-7.37149 l -0.7578,-1.77598 c -1.2176,-5.176 -0.548,-9.62802 1.9677,-14.2816 3.4556,-5.34021 8.8142,-8.38169 14.6025,-8.52598 z m 74.3788,16.55688 c 11.1077,3.58953 21.5557,8.67991 30.26,16.67275 l 1.243,1.07023 c 14.2546,12.29527 23.7267,28.026566 29.8181,45.905886 l 0.4211,1.21139 c 2.5789,7.96972 3.325,16.18285 3.2563,24.52245 -0.01,1.40226 0,2.80286 0.014,4.20506 0.034,25.17191 -11.3621,48.37082 -28.0959,66.36872 l -0.8445,0.9248 c -6.8985,7.4953 -14.7391,13.5427 -23.3653,18.8385 4.3508,-1.4057 8.5296,-3.0756 12.7108,-4.9403 l 1.1543,-0.5035 c 10.4014,-4.5703 19.542,-10.8693 27.8998,-18.6446 l 1.5734,-1.4263 c 4.6888,-4.4882 8.219,-9.798 11.7426,-15.2465 l 1.2533,-1.9319 c 7.402,-12.17504 10.0781,-25.72614 10.5906,-39.83428 l 0.079,-2.05828 c 0.063,-1.65572 0.1255,-3.31185 0.1859,-4.9677 9.2503,8.78586 12.0722,27.84912 12.711,40.14608 l 0.068,1.29779 c 1.0147,22.65669 -6.6054,46.05799 -21.5236,63.01689 -2.2665,2.508 -4.6246,4.9207 -6.9935,7.3272 l -1.084,1.144 c -2.8197,2.9548 -5.7572,5.5333 -9.0192,7.9655 l -1.495,1.1166 c -24.7412,18.1008 -55.14,26.722 -84.1661,34.6728 -2.3905,0.6563 -4.7668,1.3558 -7.1401,2.0751 -3.5642,1.054 -7.161,1.8852 -10.7826,2.703 -8.2901,1.8797 -16.3212,4.4105 -24.406,7.0449 -2.734,0.8877 -5.4745,1.7165 -8.2428,2.4881 -22.7409,6.5754 -52.4021,17.2487 -66.1279,38.3701 -1.7609,3.3497 -3.4595,6.7593 -4.2369,10.4999 h -1.2121 c -3.5931,-11.7618 -2.7021,-24.3002 2.7957,-35.2373 7.547,-14.238 20.5789,-24.9478 34.1419,-32.8799 1.2309,-0.7203 2.4388,-1.4869 3.6196,-2.2901 -13.8932,4.5261 -27.1896,9.8111 -38.7401,19.144 l -1.7118,1.3483 c -3.6666,2.9541 -6.8722,6.0479 -9.7914,9.7711 l -1.0675,1.3525 c -8.4005,11.4088 -12.0341,25.0777 -10.2228,39.1917 1.8117,11.2672 6.5271,22.3192 13.7124,31.0977 0.5158,0.6566 1.0315,1.3124 1.5466,1.9697 8.8539,11.1452 19.8308,18.8747 32.3494,25.2051 v 0.6173 c -4.5571,-0.2849 -8.7737,-1.0099 -13.1632,-2.2795 l -1.7551,-0.4993 c -4.8676,-1.4246 -9.5141,-3.1196 -14.1336,-5.2521 l -1.1873,-0.5435 c -6.1651,-2.871 -11.6216,-6.34 -16.9729,-10.5717 l -1.7941,-1.4115 c -14.6896,-11.9188 -23.2166,-26.4008 -27.262,-44.9094 l -0.4914,-2.0794 c -3.7408,-18.2884 2.0173,-37.3767 11.5155,-52.8434 3.2356,-5.0351 6.9597,-9.5797 11.0653,-13.9024 0.6263,-0.6608 1.2504,-1.3264 1.8687,-1.995 7.9772,-8.6233 17.1216,-15.4564 26.8902,-21.8196 l 1.1211,-0.7436 c 18.4306,-12.1896 38.8153,-21.9579 59.0434,-30.5415 3.0789,-1.3076 6.1066,-2.6964 9.1225,-4.1481 3.0257,-1.4241 6.0833,-2.7712 9.1369,-4.1314 7.8038,-3.4847 15.5268,-7.1334 23.2395,-10.8223 1.5579,-0.7392 3.1198,-1.4628 4.6892,-2.1763 7.0723,-3.2399 13.683,-7.2368 20.3322,-11.2921 1.3868,-0.8411 2.78,-1.6661 4.1813,-2.4817 8.6948,-5.0983 16.8113,-11.19009 23.9993,-18.32874 2.6565,-2.6735 3.9267,-3.90161 6.1842,-6.12218 13.6492,-13.70383 21.7612,-33.37035 21.9718,-52.82233 0.01,-0.92097 0.011,-1.84097 0.011,-2.76194 0,-1.37954 0.025,-2.75831 0.048,-4.13764 0.1596,-20.899606 -10.1367,-39.607606 -24.1377,-54.214876 -1.319,-1.35019 -2.6464,-2.68976 -3.9788,-4.02599 -0.8073,-0.82204 -1.6145,-1.64332 -2.42,-2.46699 z m -72.3573,20.91362 c 5.9008,0.2262 5.9005,0.22727 7.871,2.1868 3.7296,5.79588 3.7308,5.79539 3.4627,9.01264 -0.4389,1.99029 -1.0985,3.47411 -2.5356,4.94031 -4.086,-0.5404 -4.087,-0.53976 -5.4491,-1.23456 -1.697,-0.077 -3.3719,-0.11478 -5.069,-0.11586 -0.4651,-0.007 -0.9292,-0.0157 -1.4083,-0.0232 -2.4252,-0.006 -4.1091,0.0585 -6.2316,1.3736 -1.5513,-0.0386 -1.5516,-0.0383 -3.0269,-0.61728 -1.7403,-2.02041 -2.198,-4.02938 -2.1187,-6.71629 0.4884,-2.11719 1.7107,-3.53891 3.0788,-5.16573 0.9809,-1.12181 0.9817,-1.11986 1.4598,-2.93891 2.6421,-0.51701 5.1428,-0.70337 7.8317,-0.69733 1.057,-0.003 1.0569,-0.002 2.1352,-0.004 z m -3.343,18.45295 c 1.8568,-0.0751 3.6313,-0.005 5.4821,0.15801 l 1.6106,0.13694 c 1.6367,0.32313 2.5591,0.61503 3.8384,1.71488 0.741,1.93679 1.082,3.794676 1.4206,5.844096 1.1585,6.37493 4.5951,13.30097 8.6867,18.25281 1.0154,1.58049 0.9743,2.596 0.9023,4.46629 -0.025,0.82639 -0.025,0.82758 -0.05,1.67066 -0.022,0.41716 -0.041,0.83421 -0.064,1.26403 -2.5971,-0.35399 -5.1473,-0.79804 -7.7162,-1.33145 -11.3399,-2.27524 -21.7361,-0.95324 -32.841,1.94873 -0.3344,-5.46049 1.6066,-9.04343 4.5013,-13.50842 3.1241,-4.83132 4.9404,-9.11971 5.9034,-14.86306 0.746,-3.441466 0.7461,-3.439996 2.1659,-4.664326 2.0373,-0.78507 4.0024,-0.89923 6.1593,-1.08919 z m -1.5838,37.639026 c 12.0166,-0.20507 23.9413,2.84135 35.705,7.33148 8.6813,3.32016 8.6796,3.32135 17.8193,4.24718 0.4673,0.004 0.935,0.008 1.4165,0.0127 5.8121,-0.0645 11.2559,-2.36447 16.023,-5.68609 2.053,-1.07427 3.4332,-1.0589 5.7134,-0.77318 2.4236,1.30643 3.8697,2.32255 4.8419,4.94031 0.3837,3.5249 0.5287,6.86484 -0.9456,10.11446 -0.4871,0.535 -0.9749,1.07099 -1.4765,1.62219 -0.252,0.33118 -0.5021,0.66159 -0.7619,1.00282 -4.8559,5.82594 -14.134,9.59999 -21.4494,10.25983 -10.2628,0.28341 -19.8485,-3.67034 -29.2418,-7.44943 l -1.813,-0.72474 c -0.3574,-0.14602 -0.7157,-0.29405 -1.084,-0.44452 -20.0521,-7.98018 -37.4417,-3.10228 -56.6317,4.87501 -4.5532,1.86828 -9.4203,3.15808 -14.3155,3.59619 -0.5353,0.0541 -1.0715,0.10858 -1.6229,0.16433 -8.0449,0.45032 -16.1884,-2.38348 -22.4611,-7.52318 -3.6714,-3.53427 -5.6166,-6.52169 -5.767,-11.70926 0.035,-3.60105 1.2843,-5.46821 3.7083,-8.02668 1.9743,-1.03596 3.3505,-0.89945 5.5607,-0.69733 1.7697,0.7435 3.3667,1.71965 4.9948,2.74087 0.8472,0.51509 1.6951,1.02955 2.5438,1.54213 0.3693,0.22964 0.7386,0.45863 1.1192,0.69522 5.701,3.21876 15.0992,1.54592 21.1209,-0.13482 5.2043,-1.57124 10.2565,-3.63404 15.2859,-5.70295 7.2627,-2.85731 14.5079,-4.14944 21.7177,-4.27248 z m -0.196,29.21841 c 0.7322,36.72868 0.7319,36.73158 0.6049,54.35188 -3.3387,1.41 -6.6797,2.8152 -10.0205,4.2198 -1.1371,0.4785 -2.2748,0.9588 -3.4111,1.4389 -1.631,0.6888 -3.2636,1.3749 -4.8957,2.0604 -0.5102,0.2161 -1.0169,0.4304 -1.5425,0.6531 -0.4724,0.1978 -0.9482,0.3966 -1.435,0.6004 l -1.2616,0.5309 c -1.0418,0.3753 -1.0422,0.3771 -2.2527,0.3771 l -0.605,-57.43824 c 16.8213,-6.86512 16.8225,-6.86575 24.8192,-6.79424 z m 7.2619,0 c 8.8767,0.74141 15.8036,3.87808 24.2141,7.41152 l -0.605,33.34976 c -21.6096,10.4992 -21.6113,10.5 -24.2141,10.5 -0.069,-17.0992 -0.023,-34.17247 0.605,-51.26128 z m -43.5821,19.76544 h 1.2121 v 40.14404 l -14.5303,5.5576 c -2.8464,1.2496 -5.6426,2.5018 -8.4347,3.8595 l -2.1164,1.0176 c -10.7154,5.1956 -21.3609,10.5839 -31.2139,17.3574 l -1.2347,0.8448 c -9.1442,6.2984 -17.7843,13.2235 -25.3993,21.3876 l -1.5342,1.5632 c -12.3182,12.5882 -22.8745,30.2309 -25.4427,47.9937 -0.2313,1.5007 -0.5314,2.9365 -0.9065,4.4052 -2.923599,11.5347 -1.571699,24.6376 0.6464,36.2086 -2.631799,-2.4573 -4.443399,-5.1139 -6.281299,-8.2226 l -0.8817,-1.4853 c -4.5337,-7.8126 -7.7213,-16.0462 -9.7872,-24.8785 l -0.3448,-1.4621 c -0.9882,-4.7644 -1.0689,-9.4956 -1.0551,-14.3427 0,-1.3659 -0.013,-2.7275 -0.03,-4.0934 -0.024,-5.7649 0.5877,-10.9396 2.0339,-16.54 l 0.4461,-1.7317 c 4.2817,-15.9169 14.725299,-31.8592 27.397999,-42.1201 0.687,-0.576 1.3727,-1.1504 2.0586,-1.7275 4.5882,-3.8333 9.2516,-7.4087 14.2845,-10.6222 l 2.0235,-1.2999 c 11.2034,-7.0797 22.9482,-13.0921 35.5087,-17.2268 -19.5825,3.2797 -39.8779,9.9838 -55.0853,23.467 -0.7304,0.6188 -1.4603,1.2356 -2.1927,1.8518 l -1.4392,1.2345 -1.21,-0.6172 c 1.1788,-1.7545 2.3661,-3.5009 3.5555,-5.2479 l 1.0201,-1.5169 0.9808,-1.4368 0.9023,-1.3314 c 7.8557,-11.2005 17.4703,-16.3547 29.2544,-22.5822 l 1.2616,-0.6868 c 5.6872,-3.0979 11.4265,-5.4567 17.5345,-7.5442 1.7119,-0.6014 3.3919,-1.2796 5.0753,-1.9593 6.4495,-2.5523 13.0013,-4.7459 19.6735,-6.6067 8.2528,-2.307 16.6573,-5.15449 23.6442,-10.37578 z m 194.9105,77.81674 c 0.851,2.6048 -0.1708,4.3048 -1.1728,6.7163 l -0.5885,1.4242 c -3.2748,7.708 -7.8805,14.0703 -13.3717,20.2689 l -1.2038,1.3631 c -6.096,6.5394 -13.4818,11.5986 -21.1913,15.9291 l -1.1107,0.6299 c -12.5207,7 -26.4084,11.2727 -40.202,14.7704 l -1.2596,0.3223 c -7.5064,1.9113 -15.0489,3.5552 -22.6553,5.0014 -1.2718,0.258 -2.5258,0.5603 -3.7806,0.8932 2.8767,-6.3825 10.1435,-10.8929 16.3863,-13.4073 2.5321,-0.9424 5.1019,-1.7621 7.6771,-2.5723 0.8728,-0.2851 1.746,-0.5742 2.6182,-0.8617 3.4542,-1.1318 6.9156,-2.2202 10.4045,-3.2359 3.4887,-1.0581 6.7932,-2.5378 10.13,-4.0091 l 1.7986,-0.7753 c 19.6686,-8.4806 40.0004,-19.4887 53.4354,-37.0134 l 1.1832,-1.5337 c 0.9784,-1.2957 1.9453,-2.5982 2.903,-3.9101 z m -123.4844,59.2901 0.064,1.8623 c 0.8517,24.2106 2.701,48.4085 6.279,72.3687 1.6515,11.0764 1.6498,11.0749 -1.3111,16.323 l -0.7248,1.3378 c -0.8172,1.4928 -1.6515,2.9732 -2.4901,4.4536 l -0.954,1.6981 c -3.6281,6.4589 -7.288,12.7857 -11.757,18.6826 -0.5596,0.7708 -1.118,1.5443 -1.6746,2.3174 -5.6793,7.8644 -10.6346,15.1733 -18.3026,22.3883 -5.4984,-4.3482 -8.0723,-7.2015 -11.3255,-11.3595 -0.8292,-1.0536 -1.6679,-2.0993 -2.5087,-3.1433 -6.632,-8.277 -12.4044,-17.0078 -17.6418,-26.2605 l -0.921,-1.6285 c -1.6154,-2.8589 -3.2264,-5.7219 -4.8275,-8.5892 l -0.7969,-1.4263 -0.7186,-1.3251 -0.6898,-1.2619 c -1.5014,-3.4916 -0.2881,-7.5589 0.539,-11.0899 3.184,-14.8896 3.7885,-30.5921 4.7552,-45.7711 l 0.1239,-1.8097 c 0.082,-1.2923 0.1423,-2.5866 0.1922,-3.8806 l 0.1016,-2.0141 0.07,-1.816 c 0.3552,-1.5286 0.3557,-1.5269 1.5074,-2.5828 1.5902,-0.8755 3.1884,-1.446 4.9017,-2.033 1.0918,-0.4464 2.1853,-0.8936 3.2769,-1.3399 4.2372,-1.6938 8.5636,-3.1006 12.9155,-4.4516 l 1.5734,-0.4908 1.4805,-0.4488 1.3132,-0.3981 c 1.2326,-0.2814 1.2315,-0.2824 3.6527,-0.2824 l 0.017,1.0976 c 0.2804,20.446 0.7982,40.8581 1.8004,61.281 l 1.21,0.6172 0.043,-1.6959 c 0.1325,-5.3481 0.2641,-10.6948 0.3986,-16.0428 0.069,-2.7474 0.1388,-5.4942 0.2064,-8.2416 0.3153,-12.7538 0.66,-25.5024 1.1688,-38.25 0.7588,-0.2964 1.5177,-0.5928 2.2773,-0.8869 l 1.2803,-0.4972 c 7.6932,-2.814 17.3164,-5.4101 25.4963,-5.4101 z" />
</svg>
