<?xml version="1.0" encoding="UTF-8" standalone="no"?>
<svg
   version="1.1"
   width="500"
   height="500"
   id="svg20"
   sodipodi:docname="logo-incskape.svg"
   inkscape:version="1.4.3 (0d15f75, 2025-12-25)"
   inkscape:export-filename="SVGS Blue Gradient\flat_512x512.svg"
   inkscape:export-xdpi="96"
   inkscape:export-ydpi="96"
   xmlns:inkscape="http://www.inkscape.org/namespaces/inkscape"
   xmlns:sodipodi="http://sodipodi.sourceforge.net/DTD/sodipodi-0.dtd"
   xmlns:xlink="http://www.w3.org/1999/xlink"
   xmlns="http://www.w3.org/2000/svg"
   xmlns:svg="http://www.w3.org/2000/svg">
  <defs
     id="defs20">
    <linearGradient
       id="linearGradient95">
      <stop
         style="stop-color:#4a3aff;stop-opacity:1;"
         offset="0"
         id="stop94" />
      <stop
         style="stop-color:#2fc8b5;stop-opacity:1;"
         offset="1"
         id="stop95" />
    </linearGradient>
    <linearGradient
       id="linearGradient57"
       inkscape:swatch="solid">
      <stop
         style="stop-color:#101010;stop-opacity:1;"
         offset="0"
         id="stop57" />
    </linearGradient>
    <linearGradient
       id="swatch22"
       inkscape:swatch="solid">
      <stop
         style="stop-color:#fc4201;stop-opacity:1;"
         offset="0"
         id="stop22" />
    </linearGradient>
    <linearGradient
       id="linearGradient18"
       inkscape:swatch="solid">
      <stop
         style="stop-color:#ffffff;stop-opacity:1;"
         offset="0"
         id="stop17" />
    </linearGradient>
    <linearGradient
       id="swatch3"
       inkscape:swatch="solid">
      <stop
         style="stop-color:#000000;stop-opacity:1;"
         offset="0"
         id="stop2" />
    </linearGradient>
    <linearGradient
       id="swatch67"
       inkscape:swatch="solid">
      <stop
         style="stop-color:#fc4201;stop-opacity:1;"
         offset="0"
         id="stop67" />
    </linearGradient>
    <linearGradient
       id="swatch5"
       inkscape:swatch="solid">
      <stop
         style="stop-color:#fc4201;stop-opacity:1;"
         offset="0"
         id="stop5" />
    </linearGradient>
    <linearGradient
       id="swatch4"
       inkscape:swatch="solid">
      <stop
         style="stop-color:#ffffff;stop-opacity:1;"
         offset="0"
         id="stop4" />
    </linearGradient>
    <linearGradient
       inkscape:collect="always"
       xlink:href="#linearGradient95"
       id="linearGradient80"
       gradientUnits="userSpaceOnUse"
       gradientTransform="matrix(0.99591837,0,0,0.99591837,9.3469388,1.0204082)"
       x1="2045"
       y1="250"
       x2="2535"
       y2="250" />
    <linearGradient
       inkscape:collect="always"
       xlink:href="#swatch4"
       id="linearGradient81"
       gradientUnits="userSpaceOnUse"
       x1="636.88342"
       y1="337.367"
       x2="1188.5063"
       y2="337.367" />
    <linearGradient
       inkscape:collect="always"
       xlink:href="#swatch4"
       id="linearGradient89"
       gradientUnits="userSpaceOnUse"
       x1="636.88342"
       y1="337.367"
       x2="1188.5063"
       y2="337.367" />
  </defs>
  <sodipodi:namedview
     id="namedview20"
     pagecolor="#ffffff"
     bordercolor="#000000"
     borderopacity="0"
     inkscape:showpageshadow="2"
     inkscape:pageopacity="0.0"
     inkscape:pagecheckerboard="0"
     inkscape:deskcolor="#d1d1d1"
     inkscape:zoom="0.35355339"
     inkscape:cx="2876.5104"
     inkscape:cy="753.77583"
     inkscape:window-width="1920"
     inkscape:window-height="1009"
     inkscape:window-x="4472"
     inkscape:window-y="222"
     inkscape:window-maximized="1"
     inkscape:current-layer="svg20">
    <inkscape:page
       x="0"
       y="0"
       width="500"
       height="500"
       id="page12"
       margin="0"
       bleed="0"
       inkscape:label="Full H and W Blue Gradient"
       inkscape:export-filename="SVGS Blue Gradient\Very Full.svg"
       inkscape:export-xdpi="96"
       inkscape:export-ydpi="96" />
  </sodipodi:namedview>
  <g
     id="g7-2-2-4"
     transform="matrix(1.0245334,0,0,1.0245902,-2096.1815,-6.1475341)">
    <rect
       style="opacity:1;fill:url(#linearGradient80);stroke-width:10.0604"
       id="rect17-7-7-9"
       width="488"
       height="488"
       x="2046"
       y="6"
       ry="0" />
    <g
       id="g2-1-6-6-6"
       transform="matrix(0.6953212,0,0,0.64385109,1655.3839,32.785883)"
       style="fill:url(#linearGradient89)">
      <path
         id="path2-1-1-1-3"
         style="display:inline;fill:url(#linearGradient81);fill-opacity:1"
         d="m 912.3703,-3.5304951 c -9.5623,0.2336429 -18.4152,5.1590522 -24.12413,13.8057441 -4.15592,7.534917 -5.26031,14.74226 -3.24891,23.123067 l 1.24747,2.87484 c 1.88247,4.587927 4.01887,8.310069 7.43821,11.937542 2.73742,2.556487 4.66246,4.164708 8.5623,4.062081 6.94236,-2.956934 13.68247,-2.74212 20.93829,-0.811232 2.08984,0.667969 2.09053,0.666701 4.06319,0.811232 2.34609,-1.376072 3.962,-2.959733 5.81512,-4.944369 7.59743,-9.484038 9.31517,-17.889776 8.18395,-30.054066 C 938.98702,9.615169 932.39929,3.1162328 925.62089,-0.85106158 921.21076,-2.7744814 916.7168,-3.6366964 912.3703,-3.5304951 Z m 122.8744,26.8032171 c 1.3318,1.334829 2.6656,2.667725 4.0001,3.999906 2.2014,2.163576 4.3955,4.333278 6.5746,6.519461 23.1302,23.651615 40.1388,53.941809 39.8751,87.781791 -0.038,2.23335 -0.08,4.46638 -0.08,6.70007 0,1.49124 0,2.9824 -0.01,4.47362 -0.3478,31.49601 -13.7483,63.33693 -36.2973,85.52574 -3.7295,3.59546 -5.8271,5.58651 -10.2155,9.91538 -11.8751,11.55864 -25.2833,21.42011 -39.6476,29.6751 -2.315,1.32065 -4.61791,2.65883 -6.90906,4.02063 -10.98471,6.56618 -21.90481,13.03342 -33.58846,18.27936 -2.59273,1.15514 -5.17421,2.32926 -7.74801,3.52619 -12.74181,5.97295 -25.49951,11.879 -38.3919,17.52143 -5.04473,2.20226 -10.09452,4.38546 -15.093,6.69118 -4.98258,2.35065 -9.99031,4.60057 -15.07656,6.71783 -33.41802,13.8983 -67.09033,29.70975 -97.53839,49.44665 l -1.85612,1.20796 c -16.13825,10.30295 -31.24219,21.36461 -44.42087,35.32708 -1.02156,1.08261 -2.04962,2.16013 -3.0844,3.23012 -6.78277,6.99915 -12.93915,14.3605 -18.28434,22.51316 -15.69159,25.04314 -25.20174,55.94928 -19.02185,85.56127 l 0.81154,3.36632 c 6.68321,29.96854 20.76726,53.41632 45.03501,72.71479 l 2.96651,2.28566 c 8.84051,6.85187 17.85698,12.47021 28.04201,17.11877 l 1.95757,0.88229 c 7.63155,3.45296 15.30927,6.19347 23.35098,8.50017 l 2.89797,0.81123 c 7.25172,2.05576 14.22154,3.2278 21.74983,3.68903 v -1.00072 c -20.68126,-10.25004 -38.81654,-22.76154 -53.44378,-40.80732 -0.85086,-1.06437 -1.70294,-2.12844 -2.55525,-3.19164 -11.87034,-14.21374 -19.65884,-32.10625 -22.65185,-50.34966 -2.99235,-22.85298 3.00805,-44.98689 16.88607,-63.45965 l 1.76565,-2.19091 c 4.8228,-6.02849 10.11568,-11.03885 16.17323,-15.82199 l 2.82669,-2.17907 c 19.08208,-15.11158 41.04735,-23.67002 63.99928,-30.99853 -1.95057,1.30038 -3.94329,2.54055 -5.97689,3.7068 -22.40664,12.8434 -43.93693,30.1827 -56.4048,53.23634 -9.08275,17.70905 -10.55293,38.0112 -4.617,57.05565 h 1.99869 c 1.28433,-6.05678 4.09311,-11.57647 7.00228,-17.00034 22.67548,-34.19909 71.67915,-51.47763 109.24814,-62.12436 4.57325,-1.24925 9.09853,-2.59511 13.61524,-4.03248 13.35632,-4.26554 26.62611,-8.36107 40.32204,-11.40461 5.98283,-1.32409 11.92435,-2.66934 17.81277,-4.37592 3.92066,-1.1646 7.84539,-2.30068 11.79475,-3.36335 47.95228,-12.87356 98.17118,-26.8327 139.04488,-56.1408 l 2.473,-1.80899 c 5.389,-3.93812 10.243,-8.10948 14.9011,-12.89384 l 1.7875,-1.85636 c 3.9137,-3.89658 7.8093,-7.79963 11.5535,-11.86057 24.6455,-27.45915 37.2332,-65.34964 35.557,-102.0346 l -0.1124,-2.10506 c -1.0552,-19.91081 -5.7166,-50.77343 -20.9986,-64.99921 -0.1,2.6811 -0.2022,5.36332 -0.3071,8.04422 l -0.1316,3.33079 c -0.8466,22.84344 -5.2637,44.78248 -17.492,64.49589 l -2.0699,3.12946 c -5.821,8.82211 -11.6571,17.41923 -19.403,24.68632 l -2.5964,2.3123 c -13.8073,12.58952 -28.9098,22.78712 -46.0933,30.1873 l -1.9082,0.81419 c -6.9079,3.01923 -13.8106,5.72362 -20.9986,7.99982 14.2511,-8.57482 27.2036,-18.36508 38.6003,-30.50114 l 1.401,-1.49811 c 27.6449,-29.14164 46.4666,-66.70406 46.4086,-107.46157 -0.019,-2.27041 -0.035,-4.53914 -0.019,-6.80961 0.1133,-13.50324 -1.119,-26.80457 -5.3792,-39.70891 l -0.6992,-1.95702 c -10.0633,-28.949615 -25.708,-54.426209 -49.2572,-74.334295 l -2.0562,-1.729049 C 1070.8623,37.329982 1053.5991,29.084968 1035.2447,23.272722 Z M 915.70968,57.14017 c -1.78131,0.0039 -1.77978,0.005 -3.52581,0.0089 -4.44251,-0.0098 -8.573,0.287933 -12.93804,1.125066 -0.78958,2.945333 -0.78937,2.944421 -2.40995,4.760805 -2.26009,2.6341 -4.28196,4.935895 -5.08857,8.363978 -0.13184,4.35056 0.62354,7.603272 3.49839,10.874651 2.4375,0.9375 2.43835,0.938217 5.00085,1.000717 3.5067,-2.129369 6.28857,-2.233886 10.29504,-2.223486 0.79157,0.01262 1.56216,0.02328 2.33044,0.03553 2.80366,0.0023 5.5696,0.06173 8.37312,0.186524 2.25,1.125 2.25098,1.126434 9.00098,2.001434 2.37402,-2.374025 3.46132,-4.777195 4.18656,-7.999812 0.44278,-5.209256 0.44236,-5.208796 -5.71917,-14.59329 -3.25523,-3.172814 -3.25516,-3.174748 -13.00384,-3.540997 z m -5.52176,29.879384 c -3.56336,0.307594 -6.81164,0.490465 -10.17716,1.761617 -2.34567,1.982399 -2.34545,1.983414 -3.57791,7.555706 -1.59097,9.299473 -4.5884,16.238903 -9.74945,24.061613 -4.78206,7.22957 -7.99079,13.03514 -7.4382,21.87661 18.34569,-4.69879 35.52146,-6.84009 54.25531,-3.15611 4.24397,0.86369 8.45562,1.58221 12.74612,2.15539 0.0359,-0.69594 0.0694,-1.37037 0.10419,-2.04584 0.0414,-1.36508 0.0417,-1.36508 0.0823,-2.70312 0.11954,-3.02833 0.18876,-4.67688 -1.48874,-7.23595 -6.75925,-8.01786 -12.44146,-19.23163 -14.35549,-29.553709 -0.55919,-3.31838 -1.12002,-6.326434 -2.34415,-9.462397 -2.11358,-1.780848 -3.63475,-2.253916 -6.33879,-2.777137 l -2.65944,-0.222053 c -3.05744,-0.263926 -5.99104,-0.376067 -9.05854,-0.25462 z M 907.5696,147.9626 c -11.91106,0.19923 -23.87686,2.29565 -35.87502,6.92212 -8.30893,3.34992 -16.65601,6.68737 -25.25371,9.23146 -9.94804,2.72139 -25.47481,5.43078 -34.8935,0.21909 -0.62853,-0.38308 -1.23785,-0.7562 -1.8479,-1.12802 -1.40228,-0.82994 -2.80316,-1.66184 -4.20301,-2.49587 -2.6898,-1.65352 -5.32597,-3.23424 -8.24975,-4.43809 -3.65137,-0.32726 -5.92585,-0.55231 -9.1874,1.12506 -4.0045,4.14259 -6.06484,7.16972 -6.12494,13.00044 0.24858,8.39956 3.45638,13.23774 9.52189,18.96032 10.36268,8.32202 23.81846,12.90946 37.10878,12.18032 0.91109,-0.0903 1.79708,-0.17876 2.68138,-0.26646 8.08691,-0.70938 16.12498,-2.79866 23.64708,-5.8237 31.70259,-12.91653 60.43583,-20.8145 93.56293,-7.89323 0.60853,0.24363 1.1997,0.48299 1.79033,0.71945 l 2.99118,1.1754 c 15.51826,6.11899 31.35948,12.52078 48.31406,12.06189 12.0853,-1.06841 27.4085,-7.17928 35.4309,-16.61248 0.429,-0.5525 0.8475,-1.08918 1.2639,-1.62543 0.8287,-0.8925 1.633,-1.75989 2.4374,-2.62614 2.4359,-5.26168 2.1968,-10.66821 1.5627,-16.37563 -1.606,-4.23858 -3.9962,-5.88449 -8.0002,-7.99981 -3.7669,-0.4626 -6.0451,-0.49 -9.4369,1.24941 -7.8754,5.37828 -16.8719,9.1062 -26.47379,9.21074 -0.79555,-0.007 -1.56925,-0.0137 -2.3414,-0.0207 -15.09914,-1.49909 -15.09802,-1.49884 -29.44028,-6.87475 -19.43404,-7.27027 -39.13295,-12.20741 -58.98473,-11.87537 z m -0.32352,47.31199 c -13.21062,-0.11575 -13.20986,-0.11675 -40.99924,10.999 l 0.99798,93.00151 c 2,0 2.00211,-0.002 3.72321,-0.60991 l 2.08643,-0.8586 c 0.80431,-0.33004 1.58268,-0.65078 2.36334,-0.97111 0.86829,-0.36059 1.7125,-0.71291 2.55525,-1.06289 2.69651,-1.10989 5.39096,-2.21847 8.08525,-3.33375 1.87741,-0.7773 3.75572,-1.55529 5.63417,-2.33007 5.51939,-2.27428 11.03858,-4.55018 16.55433,-6.83329 0.20995,-28.53022 0.20923,-28.53111 -1.00072,-88.00089 z m 12.00038,0 c -1.0362,27.66964 -1.11481,55.31375 -1.00071,83.00026 4.3,0 4.30126,-3.4e-4 40.00126,-17.00034 l 0.99798,-54.0002 c -13.89444,-5.72124 -25.33385,-10.79927 -39.99853,-11.99972 z m -71.99954,31.99925 -1.00071,2.00143 c -11.54274,8.45421 -25.42691,13.06081 -39.06087,16.79605 -11.02274,3.01296 -21.84764,6.57028 -32.50274,10.70293 -2.78095,1.1005 -5.55588,2.19721 -8.38409,3.17091 -10.09034,3.38012 -19.57301,7.19981 -28.9687,12.21585 l -2.08369,1.11322 c -19.46777,10.08337 -35.35,18.42622 -48.32778,36.56169 l -1.49148,2.15539 -1.62308,2.32711 -1.6834,2.45442 c -1.96523,2.82868 -3.92789,5.65928 -5.87544,8.50017 l 2.00143,1.00071 2.37431,-1.99847 c 1.21018,-0.99777 2.41779,-2.00021 3.62451,-3.00215 25.12313,-21.83147 58.64839,-32.68729 90.99946,-37.99762 -20.7505,6.69478 -40.15017,16.43247 -58.65848,27.89571 l -3.33937,2.1021 c -8.31459,5.20326 -16.01785,10.992 -23.59774,17.19871 -1.13338,0.93448 -2.2675,1.86822 -3.40243,2.80082 -20.93581,16.61404 -38.18897,42.42769 -45.26257,68.19972 l -0.73752,2.80082 c -2.38913,9.06793 -3.40221,17.4451 -3.36131,26.77954 0.0253,2.21152 0.0469,4.42324 0.0439,6.63492 -0.0233,7.84814 0.11741,15.50334 1.74919,23.21781 l 0.56753,2.36856 c 3.41292,14.30094 8.68048,27.63039 16.1705,40.28033 l 1.45583,2.40705 c 3.03617,5.03359 6.0269,9.33249 10.37456,13.3113 -3.66419,-18.73534 -5.89392,-39.94827 -1.06378,-58.62482 0.61939,-2.37809 1.11495,-4.70253 1.49697,-7.13232 4.2428,-28.76093 21.68,-57.32713 42.03011,-77.7095 l 2.53607,-2.53139 c 12.58065,-13.21915 26.8495,-24.43323 41.95609,-34.63131 l 2.04256,-1.37081 c 16.27748,-10.96751 33.86335,-19.68739 51.56572,-28.1 l 3.49839,-1.64911 c 4.61258,-2.1984 9.23353,-4.22674 13.93602,-6.25004 l 24.00076,-9.00053 v -64.9992 z m 321.99788,126.00147 c -1.5821,2.12413 -3.1786,4.23192 -4.7952,6.32997 l -1.9549,2.48107 c -22.1951,28.3754 -55.7835,46.2019 -88.2769,59.93345 l -2.972,1.25534 c -5.5125,2.38232 -10.9721,4.77659 -16.7353,6.48985 -5.764,1.64456 -11.4838,3.41076 -17.1904,5.2434 -1.4408,0.46538 -2.8816,0.92983 -4.3236,1.39153 -4.2541,1.31177 -8.4973,2.63687 -12.6804,4.16274 -10.3134,4.07109 -22.31894,11.37645 -27.07141,21.71082 2.073,-0.53904 4.14165,-1.0271 6.24283,-1.44482 12.56608,-2.34169 25.02888,-5.00272 37.42958,-8.09752 l 2.0782,-0.52108 c 22.7879,-5.66321 45.7329,-12.58236 66.4174,-23.91654 l 1.8342,-1.01848 c 12.7365,-7.01178 24.9406,-15.20529 35.0114,-25.79362 l 1.9877,-2.20868 c 9.0718,-10.03661 16.6796,-20.3388 22.0898,-32.81936 l 0.9733,-2.30342 c 1.6553,-3.9047 3.3415,-6.6571 1.9357,-10.87465 z m -203.99825,95.99773 c -13.5135,0 -29.41097,4.20443 -42.1206,8.76072 l -2.11658,0.80531 c -1.25497,0.47634 -2.51072,0.95606 -3.76434,1.43594 -0.84025,20.64043 -1.40936,41.28441 -1.93015,61.93488 -0.1121,4.44852 -0.22322,8.8954 -0.33723,13.34387 -0.22203,8.65936 -0.44464,17.32071 -0.66349,25.98015 l -0.0685,2.73864 -1.99869,-0.99775 c -1.65569,-33.06798 -2.51417,-66.11659 -2.97748,-99.22194 l -0.0247,-1.77938 c -4,0 -3.99832,3.8e-4 -6.03446,0.45595 l -2.16867,0.64543 -2.44559,0.72833 -2.59912,0.79643 c -7.18951,2.1874 -14.34158,4.46387 -21.34132,7.20634 -1.80363,0.72266 -3.60573,1.44458 -5.40936,2.16723 -2.83068,0.95052 -5.47151,1.87479 -8.09895,3.2923 -1.90259,1.70972 -1.90255,1.70837 -2.48946,4.18347 l -0.11515,2.93998 -0.16724,3.26269 c -0.0814,2.09519 -0.18391,4.19013 -0.31804,6.2826 l -0.20563,2.9311 c -1.59729,24.57731 -2.59476,50.00051 -7.85494,74.10928 -1.36648,5.71735 -3.37432,12.3033 -0.89379,17.95665 l 1.14328,2.04288 1.18441,2.14355 1.31876,2.3123 c 2.6451,4.64257 5.304,9.27745 7.97283,13.90641 l 1.52438,2.63798 c 8.65251,14.98166 18.18813,29.11678 29.14418,42.51862 1.38915,1.69032 2.77544,3.3806 4.14543,5.08648 5.37438,6.73248 9.62565,11.35433 18.7093,18.39483 12.6678,-11.68242 20.85308,-23.51695 30.23536,-36.25081 0.91952,-1.25174 1.84191,-2.50016 2.76637,-3.74825 7.38306,-9.54802 13.43097,-19.7914 19.42488,-30.24947 l 1.57373,-2.75049 c 1.38524,-2.39715 2.76504,-4.79521 4.11527,-7.21227 l 1.19812,-2.16427 c 4.89158,-8.49761 4.89145,-8.49861 2.1632,-26.43313 -5.91101,-38.79556 -8.96462,-77.97754 -10.37182,-117.17858 z" />
    </g>
  </g>
</svg>
